HIERARCHY
ROOT hip
{
  OFFSET -2.79859 82.5482 -16.1802
  CHANNELS 6 Xposition Yposition Zposition Zrotation Xrotation Yrotation
  JOINT abdomen
  {
    OFFSET 0 20.6881 -0.73152
    CHANNELS 3 Zrotation Xrotation Yrotation
    JOINT chest
    {
      OFFSET 0 11.7043 -0.48768
      CHANNELS 3 Zrotation Xrotation Yrotation
      JOINT neck
      {
        OFFSET 0 22.1894 -2.19456
        CHANNELS 3 Zrotation Xrotation Yrotation
        JOINT head
        {
          OFFSET -0.24384 7.07133 1.2192
          CHANNELS 3 Zrotation Xrotation Yrotation
          JOINT leftEye
          {
            OFFSET 4.14528 8.04674 8.04672
            CHANNELS 3 Zrotation Xrotation Yrotation
            End Site
            {
              OFFSET 1 0 0
            }
          }
          JOINT rightEye
          {
            OFFSET -3.6576 8.04674 8.04672
            CHANNELS 3 Zrotation Xrotation Yrotation
            End Site
            {
              OFFSET 1 0 0
            }
          }
        }
      }
      JOINT rCollar
      {
        OFFSET -2.68224 19.2634 -4.8768
        CHANNELS 3 Zrotation Xrotation Yrotation
        JOINT rShldr
        {
          OFFSET -8.77824 -1.95073 1.46304
          CHANNELS 3 Zrotation Xrotation Yrotation
          JOINT rForeArm
          {
            OFFSET -28.1742 -1.7115 0.48768
            CHANNELS 3 Zrotation Xrotation Yrotation
            JOINT rHand
            {
              OFFSET -22.5879 0.773209 7.07136
              CHANNELS 3 Zrotation Xrotation Yrotation
              JOINT rThumb1
              {
                OFFSET -1.2192 -0.487915 3.41376
                CHANNELS 3 Zrotation Xrotation Yrotation
                JOINT rThumb2
                {
                  OFFSET -3.37035 -0.52449 3.41376
                  CHANNELS 3 Zrotation Xrotation Yrotation
                  End Site
                  {
                    OFFSET -1.78271 -1.18214 1.43049
                  }
                }
              }
              JOINT rIndex1
              {
                OFFSET -7.75947 0.938293 5.60832
                CHANNELS 3 Zrotation Xrotation Yrotation
                JOINT rIndex2
                {
                  OFFSET -2.54057 -0.884171 1.56538
                  CHANNELS 3 Zrotation Xrotation Yrotation
                  End Site
                  {
                    OFFSET -1.62519 -0.234802 1.16502
                  }
                }
              }
              JOINT rMid1
              {
                OFFSET -8.24714 1.18213 3.41376
                CHANNELS 3 Zrotation Xrotation Yrotation
                JOINT rMid2
                {
                  OFFSET -3.10165 -0.590103 1.0647
                  CHANNELS 3 Zrotation Xrotation Yrotation
                  End Site
                  {
                    OFFSET -2.48547 -0.328903 0.83742
                  }
                }
              }
              JOINT rRing1
              {
                OFFSET -8.82822 0.546677 1.51678
                CHANNELS 3 Zrotation Xrotation Yrotation
                JOINT rRing2
                {
                  OFFSET -2.60934 -0.819778 -0.0198488
                  CHANNELS 3 Zrotation Xrotation Yrotation
                  End Site
                  {
                    OFFSET -2.33842 -0.294052 0.168128
                  }
                }
              }
              JOINT rPinky1
              {
                OFFSET -8.27202 -0.0477905 -0.4584
                CHANNELS 3 Zrotation Xrotation Yrotation
                JOINT rPinky2
                {
                  OFFSET -1.82734 -0.647385 -0.700984
                  CHANNELS 3 Zrotation Xrotation Yrotation
                  End Site
                  {
                    OFFSET -1.69225 -0.51767 -0.607171
                  }
                }
              }
            }
          }
        }
      }
      JOINT lCollar
      {
        OFFSET 2.68224 19.2634 -4.8768
        CHANNELS 3 Zrotation Xrotation Yrotation
        JOINT lShldr
        {
          OFFSET 8.77824 -1.95073 1.46304
          CHANNELS 3 Zrotation Xrotation Yrotation
          JOINT lForeArm
          {
            OFFSET 28.1742 -1.7115 0.48768
            CHANNELS 3 Zrotation Xrotation Yrotation
            JOINT lHand
            {
              OFFSET 22.5879 0.773209 7.07136
              CHANNELS 3 Zrotation Xrotation Yrotation
              JOINT lThumb1
              {
                OFFSET 1.2192 -0.487915 3.41376
                CHANNELS 3 Zrotation Xrotation Yrotation
                JOINT lThumb2
                {
                  OFFSET 3.37035 -0.52449 3.41376
                  CHANNELS 3 Zrotation Xrotation Yrotation
                  End Site
                  {
                    OFFSET 1.78271 -1.18214 1.43049
                  }
                }
              }
              JOINT lIndex1
              {
                OFFSET 7.75947 0.938293 5.60832
                CHANNELS 3 Zrotation Xrotation Yrotation
                JOINT lIndex2
                {
                  OFFSET 2.54057 -0.884171 1.56538
                  CHANNELS 3 Zrotation Xrotation Yrotation
                  End Site
                  {
                    OFFSET 1.62519 -0.234802 1.16502
                  }
                }
              }
              JOINT lMid1
              {
                OFFSET 8.24714 1.18213 3.41376
                CHANNELS 3 Zrotation Xrotation Yrotation
                JOINT lMid2
                {
                  OFFSET 3.10165 -0.590103 1.0647
                  CHANNELS 3 Zrotation Xrotation Yrotation
                  End Site
                  {
                    OFFSET 2.48547 -0.328903 0.83742
                  }
                }
              }
              JOINT lRing1
              {
                OFFSET 8.82822 0.546677 1.51678
                CHANNELS 3 Zrotation Xrotation Yrotation
                JOINT lRing2
                {
                  OFFSET 2.60934 -0.819778 -0.0198488
                  CHANNELS 3 Zrotation Xrotation Yrotation
                  End Site
                  {
                    OFFSET 2.33842 -0.294052 0.168128
                  }
                }
              }
              JOINT lPinky1
              {
                OFFSET 8.27202 -0.0477905 -0.4584
                CHANNELS 3 Zrotation Xrotation Yrotation
                JOINT lPinky2
                {
                  OFFSET 1.82734 -0.647385 -0.700984
                  CHANNELS 3 Zrotation Xrotation Yrotation
                  End Site
                  {
                    OFFSET 1.69225 -0.51767 -0.607171
                  }
                }
              }
            }
          }
        }
      }
    }
  }
  JOINT rButtock
  {
    OFFSET -8.77824 4.35084 1.2192
    CHANNELS 3 Zrotation Xrotation Yrotation
    JOINT rThigh
    {
      OFFSET 0 -1.70687 -2.19456
      CHANNELS 3 Zrotation Xrotation Yrotation
      JOINT rShin
      {
        OFFSET 0 -36.8199 0.73152
        CHANNELS 3 Zrotation Xrotation Yrotation
        JOINT rFoot
        {
          OFFSET 0.73152 -45.1104 -5.12064
          CHANNELS 3 Zrotation Xrotation Yrotation
          End Site
          {
            OFFSET -1.1221 -3.69964 12.103
          }
        }
      }
    }
  }
  JOINT lButtock
  {
    OFFSET 8.77824 4.35084 1.2192
    CHANNELS 3 Zrotation Xrotation Yrotation
    JOINT lThigh
    {
      OFFSET 0 -1.70687 -2.19456
      CHANNELS 3 Zrotation Xrotation Yrotation
      JOINT lShin
      {
        OFFSET 0 -36.8199 0.73152
        CHANNELS 3 Zrotation Xrotation Yrotation
        JOINT lFoot
        {
          OFFSET -0.73152 -45.1104 -5.12064
          CHANNELS 3 Zrotation Xrotation Yrotation
          End Site
          {
            OFFSET 1.1221 -3.69964 12.103
          }
        }
      }
    }
  }
}
MOTION
Frames:	6
Frame Time:	0.00833333
11.9366 37.9511 -7.87471 -2.24498 12.6068 -7.2819 -3.47014 57.774 22.8192 0.747258 -0.906995 5.09905 2.16844 9.28232 -6.9 -16.0217 4.727 -12.2863 -0 0 0 -0 0 0 -2.72905e-013 -7.82681e-014 1.22939e-013 49.0946 5.09306 50.6199 -15.9028 -8.59724 29.4678 -0.000998694 -0.892939 -0.125505 -1.24913e-009 4.24935e-010 7.87446e-010 -2.16e-009 7.3411e-010 1.36394e-009 -1.24912e-009 4.24938e-010 7.87447e-010 7.73091 5.47488 0.417314 -1.24913e-009 4.24943e-010 7.87448e-010 2.90554 0.965183 0.102902 -1.24913e-009 4.2494e-010 7.87449e-010 10.2786 0.731801 0.0259123 -1.24913e-009 4.24939e-010 7.87461e-010 2.22167 -0.733487 -0.20892 -2.72888e-013 -7.82748e-014 1.22796e-013 -43.9492 66.1707 -26.8876 28.3706 -37.5132 -79.5707 1.19152 29.3928 -4.54072 3.51806e-009 -2.07898e-010 -1.00578e-009 6.04961e-009 -4.35385e-010 -1.81626e-009 3.51805e-009 -2.07892e-010 -1.00577e-009 -7.73091 5.47488 -0.417314 3.51806e-009 -2.07897e-010 -1.00578e-009 -2.90554 0.965183 -0.102902 3.51805e-009 -2.07896e-010 -1.00578e-009 -10.2786 0.731801 -0.0259123 3.51807e-009 -2.07893e-010 -1.0058e-009 -2.22167 -0.733487 0.20892 -2.03217e-016 0 -3.88251e-019 -95.0078 -25.0885 -98.1899 -177.61 43.8312 179.064 9.98735 -12.4703 16.9707 2.03217e-016 0 3.88251e-019 136.781 -60.1614 137.011 177.073 51.9304 -176.802 -7.24592 -14.0539 -14.6933 
11.9456 37.9119 -7.86857 -2.25864 12.5434 -7.29243 -3.48924 57.8384 22.8327 0.749128 -0.941825 5.10057 2.1607 9.20021 -6.87995 -15.9716 4.81064 -12.2436 -0 0 0 -0 0 0 -1.31861e-013 8.9056e-014 7.28049e-014 49.1693 5.14243 50.5747 -15.9303 -8.62261 29.5256 -0.00093496 -0.856067 -0.120322 4.04318e-010 -3.03858e-010 -1.1674e-010 6.98607e-010 -5.24246e-010 -2.04708e-010 4.0432e-010 -3.03855e-010 -1.16742e-010 7.73091 5.47488 0.417314 4.04313e-010 -3.03853e-010 -1.16739e-010 2.90554 0.965183 0.102902 4.04318e-010 -3.03854e-010 -1.16737e-010 10.2786 0.731801 0.0259123 4.04311e-010 -3.03853e-010 -1.16726e-010 2.22167 -0.733487 -0.20892 -1.31836e-013 8.90552e-014 7.26527e-014 -43.9906 66.1194 -26.8586 28.3701 -37.5207 -79.5835 1.19005 29.3767 -4.53773 5.65594e-010 -1.42937e-010 -4.90018e-010 9.65549e-010 -2.63835e-010 -8.6074e-010 5.65585e-010 -1.42931e-010 -4.90004e-010 -7.73091 5.47488 -0.417314 5.65595e-010 -1.42936e-010 -4.90019e-010 -2.90554 0.965183 -0.102902 5.65589e-010 -1.42936e-010 -4.90018e-010 -10.2786 0.731801 -0.0259123 5.65601e-010 -1.42934e-010 -4.90029e-010 -2.22167 -0.733487 0.20892 -2.03217e-016 0 -3.88251e-019 -94.9783 -24.9735 -98.1127 -177.61 43.8104 179.061 10.024 -12.5065 17.0095 2.03217e-016 0 3.88251e-019 136.721 -60.1541 136.949 177.075 51.8752 -176.802 -7.24276 -13.9263 -14.741 
11.9538 37.8915 -7.85562 -2.27502 12.4889 -7.30252 -3.50478 57.8944 22.8396 0.752088 -0.975894 5.10091 2.15253 9.10996 -6.85816 -15.9233 4.90194 -12.197 -0 0 0 -0 0 0 7.81798e-015 2.50019e-013 2.32795e-014 49.2396 5.19083 50.5434 -15.9538 -8.64435 29.5751 -0.000874385 -0.826855 -0.116216 1.95571e-009 -9.72545e-010 -9.77082e-010 3.3807e-009 -1.67872e-009 -1.69716e-009 1.95571e-009 -9.72543e-010 -9.77089e-010 7.73091 5.47488 0.417314 1.95571e-009 -9.72542e-010 -9.77082e-010 2.90554 0.965183 0.102902 1.95572e-009 -9.72541e-010 -9.77078e-010 10.2786 0.731801 0.0259123 1.95571e-009 -9.72539e-010 -9.77071e-010 2.22167 -0.733487 -0.20892 7.84922e-015 2.50024e-013 2.312e-014 -44.0396 66.0669 -26.8179 28.3692 -37.5342 -79.6066 1.18839 29.3584 -4.53434 -2.26012e-009 -7.69282e-011 2.4635e-011 -3.89971e-009 -9.30192e-011 8.99845e-011 -2.26013e-009 -7.69221e-011 2.46484e-011 -7.73091 5.47488 -0.417314 -2.26012e-009 -7.69286e-011 2.46363e-011 -2.90554 0.965183 -0.102902 -2.26013e-009 -7.69289e-011 2.46372e-011 -10.2786 0.731801 -0.0259123 -2.26012e-009 -7.69268e-011 2.46281e-011 -2.22167 -0.733487 0.20892 -2.03217e-016 0 -3.88251e-019 -94.963 -24.863 -98.0553 -177.61 43.7845 179.059 10.0562 -12.5282 17.0455 2.03217e-016 0 3.88251e-019 136.704 -60.1383 136.922 177.077 51.8151 -176.803 -7.23574 -13.7964 -14.781 
11.9594 37.8932 -7.83468 -2.28027 12.4564 -7.31508 -3.50834 57.9111 22.828 0.755769 -0.989835 5.09808 2.15025 9.03047 -6.83836 -15.8961 4.98783 -12.1542 -0 0 0 -0 0 0 9.06296e-014 3.43496e-013 -2.88238e-015 49.2702 5.24396 50.5274 -15.9738 -8.66291 29.6174 -0.000894982 -0.854205 -0.12006 2.75342e-009 -1.26376e-009 -1.47851e-009 4.75959e-009 -2.18108e-009 -2.56675e-009 2.75342e-009 -1.26376e-009 -1.47852e-009 7.73091 5.47488 0.417314 2.75342e-009 -1.26376e-009 -1.47851e-009 2.90554 0.965183 0.102902 2.75343e-009 -1.26376e-009 -1.47851e-009 10.2786 0.731801 0.0259123 2.75342e-009 -1.26376e-009 -1.4785e-009 2.22167 -0.733487 -0.20892 9.0668e-014 3.43505e-013 -3.03147e-015 -44.0713 66.0315 -26.7875 28.3679 -37.5535 -79.6396 1.18531 29.3247 -4.52807 -3.89995e-009 -2.76057e-011 3.79109e-010 -6.72196e-009 2.51009e-011 7.38032e-010 -3.89996e-009 -2.76001e-011 3.79122e-010 -7.73091 5.47488 -0.417314 -3.89995e-009 -2.76065e-011 3.79113e-010 -2.90554 0.965183 -0.102902 -3.89996e-009 -2.76072e-011 3.79113e-010 -10.2786 0.731801 -0.0259123 -3.89995e-009 -2.76056e-011 3.79106e-010 -2.22167 -0.733487 0.20892 -2.03217e-016 0 -3.88251e-019 -95.0115 -24.7673 -98.0379 -177.611 43.7433 179.059 10.0844 -12.5152 17.0878 2.03217e-016 0 3.88251e-019 136.772 -60.1114 136.983 177.08 51.7417 -176.808 -7.21662 -13.7047 -14.7746 
11.9683 37.8635 -7.82837 -2.26333 12.4696 -7.32865 -3.48444 57.8518 22.7765 0.758872 -0.968735 5.08913 2.15826 8.95993 -6.81998 -15.902 5.07001 -12.1143 -0 0 0 -0 0 0 7.89837e-014 3.46552e-013 1.34071e-014 49.2514 5.29838 50.5335 -15.9897 -8.67767 29.651 -0.00110108 -0.948498 -0.133316 2.46385e-009 -9.95749e-010 -1.47661e-009 4.25842e-009 -1.71726e-009 -2.56277e-009 2.46385e-009 -9.95747e-010 -1.47662e-009 7.73091 5.47488 0.417314 2.46385e-009 -9.95748e-010 -1.47661e-009 2.90554 0.965183 0.102902 2.46386e-009 -9.95746e-010 -1.47661e-009 10.2786 0.731801 0.0259123 2.46385e-009 -9.95744e-010 -1.4766e-009 2.22167 -0.733487 -0.20892 7.90367e-014 3.4656e-013 1.33042e-014 -44.0813 66.021 -26.7647 28.3657 -37.5836 -79.6909 1.18043 29.271 -4.51811 -3.86558e-009 1.63335e-011 5.48649e-010 -6.65943e-009 9.9626e-011 1.02995e-009 -3.86558e-009 1.63378e-011 5.48661e-010 -7.73091 5.47488 -0.417314 -3.86557e-009 1.63327e-011 5.48654e-010 -2.90554 0.965183 -0.102902 -3.86558e-009 1.63318e-011 5.48654e-010 -10.2786 0.731801 -0.0259123 -3.86557e-009 1.63327e-011 5.48649e-010 -2.22167 -0.733487 0.20892 -2.03217e-016 0 -3.88251e-019 -95.1853 -24.6849 -98.1024 -177.612 43.6724 179.063 10.1083 -12.4356 17.1485 2.03217e-016 0 3.88251e-019 137.015 -60.0615 137.237 177.085 51.645 -176.821 -7.17115 -13.6564 -14.6873 
11.9876 37.7918 -7.84031 -2.234 12.5148 -7.34244 -3.44239 57.7427 22.6977 0.76201 -0.92617 5.07593 2.1723 8.89054 -6.80157 -15.9284 5.15374 -12.0743 -0 0 0 -0 0 0 1.00775e-014 2.94e-013 5.56721e-014 49.2021 5.35259 50.5589 -16.0016 -8.68869 29.676 -0.00149117 -1.08454 -0.152443 1.48782e-009 -3.70144e-010 -1.15954e-009 2.57024e-009 -6.35579e-010 -2.01175e-009 1.48782e-009 -3.7014e-010 -1.15955e-009 7.73091 5.47488 0.417314 1.48781e-009 -3.70142e-010 -1.15954e-009 2.90554 0.965183 0.102902 1.48782e-009 -3.70141e-010 -1.15954e-009 10.2786 0.731801 0.0259123 1.48781e-009 -3.7014e-010 -1.15954e-009 2.22167 -0.733487 -0.20892 1.01494e-014 2.94005e-013 5.5638e-014 -44.0824 66.0247 -26.7403 28.3629 -37.6228 -79.758 1.17444 29.2047 -4.50584 -2.7905e-009 5.90034e-011 6.12202e-010 -4.80347e-009 1.50616e-010 1.11594e-009 -2.7905e-009 5.90056e-011 6.12215e-010 -7.73091 5.47488 -0.417314 -2.7905e-009 5.90029e-011 6.12209e-010 -2.90554 0.965183 -0.102902 -2.79051e-009 5.90018e-011 6.12209e-010 -10.2786 0.731801 -0.0259123 -2.7905e-009 5.90019e-011 6.12207e-010 -2.22167 -0.733487 0.20892 -2.03217e-016 0 -3.88251e-019 -95.4412 -24.6113 -98.2252 -177.615 43.5811 179.071 10.1277 -12.309 17.2197 2.03217e-016 0 3.88251e-019 137.383 -59.9925 137.622 177.092 51.5322 -176.838 -7.10796 -13.6315 -14.5478 
